<svg width="128" height="128" viewBox="0 0 128 128" fill="none" xmlns="http://www.w3.org/2000/svg">
<path d="M91.7498 80.02V67.53L81.5898 73.39V85.89L91.7498 80.02Z" fill="#F3BA2C"/>
<path d="M91.7499 47.98L81.2099 41.89L63.9999 51.83L46.7899 41.89L36.2499 47.98V59.05L53.7499 69.16V90.13L63.9999 96.05L74.2499 90.13V69.16L91.7499 59.05V47.98ZM109.35 48.89V37.82L98.8099 31.73L88.5499 37.65L99.0899 43.74V54.81L109.35 48.89V48.89ZM28.9099 54.81V43.74L39.4499 37.65L29.1899 31.73L18.6499 37.82V48.89L28.9099 54.81V54.81Z" fill="#F3BA2C"/>
<path d="M36.25 80.0199L46.41 85.8899V73.3899L36.25 67.5299V80.0199ZM74.25 98.61L64 104.53L53.75 98.61V110.45L64 116.37L74.25 110.45V98.61ZM73.87 37.65L64 31.95L54.13 37.65L64 43.3499L73.87 37.65ZM99.09 63.29V84.26L81.59 94.37V106.21L109.35 90.18V57.3699L99.09 63.29Z" fill="#F3BA2C"/>
<path d="M46.4099 94.3699L28.9099 84.2599V63.2899L18.6499 57.3699V90.1799L46.4099 106.21V94.3699ZM46.7899 33.4099L63.9999 23.4799L81.2099 33.4099L91.4699 27.4899L63.9999 11.6299L36.5299 27.4899L46.7899 33.4099Z" fill="#F3BA2C"/>
</svg>
