<svg width="32" height="32" viewBox="0 0 32 32" fill="none" xmlns="http://www.w3.org/2000/svg">
<path d="M24.9995 14.1999C23.9277 14.1999 22.8838 14.1867 21.8405 14.2077C21.5036 14.2143 21.1554 14.2629 20.8341 14.3715C19.3927 14.859 18.4512 16.4291 18.5786 18.0849C18.7098 19.7863 19.856 21.1351 21.3686 21.363C21.5336 21.3875 21.7017 21.3971 21.8688 21.3977C22.8329 21.4007 23.797 21.3995 24.7611 21.3995C24.8334 21.3995 24.9052 21.3995 24.977 21.3995C24.977 22.1054 25.0311 22.7987 24.9636 23.4764C24.8731 24.3849 24.1928 24.9918 23.3755 24.9972C22.5255 25.0026 21.675 24.9984 20.825 24.9984C17.0827 24.9984 13.3404 25.0002 9.5976 24.9972C8.35874 24.996 7.32984 24.0755 7.06257 22.7309C7.0208 22.521 7.00312 22.3003 7.00312 22.0844C6.99991 18.0285 6.99884 13.9726 7.00152 9.91615C7.00259 8.27652 8.13486 7.00332 9.59599 7.00213C13.5327 6.99853 17.4689 7.00033 21.4056 7.00153C21.992 7.00153 22.4248 7.45911 22.4275 8.07382C22.4302 8.69813 21.9958 9.15991 21.3981 9.15991C17.5015 9.16111 13.6055 9.15991 9.709 9.16171C9.60295 9.16171 9.49262 9.16471 9.39193 9.19589C9.08663 9.29065 8.89488 9.62469 8.93345 9.96893C8.97094 10.3018 9.22428 10.5716 9.52743 10.5974C9.60081 10.6034 9.67472 10.5998 9.7481 10.5998C14.2472 10.5998 18.7457 10.5998 23.2448 10.5998C24.3353 10.5998 24.9995 11.3399 25 12.5555C25 13.0947 24.9995 13.6332 24.9995 14.1999Z" fill="#55FF79"/>
<path d="M24.9828 19.9547C23.8682 19.9547 22.7696 19.9769 21.6722 19.9481C20.691 19.9229 19.8833 18.9693 19.8592 17.8707C19.8335 16.724 20.5854 15.7135 21.6047 15.6607C22.7257 15.6025 23.8516 15.6475 24.9833 15.6475C24.9828 17.0874 24.9828 18.5196 24.9828 19.9547Z" fill="#55FF79"/>
</svg>
