<svg width="447" height="447" viewBox="0 0 447 447" fill="none" xmlns="http://www.w3.org/2000/svg">
<circle opacity="0.2" cx="223.5" cy="223.5" r="221.765" stroke="#55FF79" stroke-width="3.4691" stroke-linecap="square" stroke-dasharray="10.41 21.68"/>
<circle opacity="0.2" cx="223.5" cy="223.5" r="221.765" stroke="#55FF79" stroke-width="3.4691" stroke-linecap="square" stroke-dasharray="10.41 21.68"/>
<circle opacity="0.6" cx="223.5" cy="223.5" r="177.303" stroke="#55FF79" stroke-width="3.4691" stroke-linecap="square" stroke-dasharray="10.41 21.68"/>
<circle cx="223.5" cy="223.5" r="129.876" stroke="#55FF79" stroke-width="3.4691" stroke-linecap="square" stroke-dasharray="10.41 21.68"/>
<rect x="158" y="158" width="131.527" height="131.527" rx="65.7633" fill="#213728"/>
<path d="M223.326 176L264.311 199.663V246.989L223.326 270.652L182.34 246.989V199.663L223.326 176Z" fill="#55FF79"/>
<path d="M223.326 182.96L258.284 203.143V243.509L223.326 263.692L188.368 243.509V203.143L223.326 182.96Z" fill="#213728"/>
<path d="M223.327 194.095L248.641 208.711V237.941L223.327 252.557L198.012 237.941V208.711L223.327 194.095Z" fill="#55FF79"/>
<circle cx="261.345" cy="201.211" r="10.8617" fill="#55FF79" stroke="#213728" stroke-width="4.81459"/>
<circle cx="185.269" cy="247.21" r="10.8617" fill="#55FF79" stroke="#213728" stroke-width="4.81459"/>
</svg>
