<svg viewBox="0 0 42 46" fill="none" xmlns="http://www.w3.org/2000/svg">
<g clip-path="url(#clip0_585_179)">
<path d="M5.41453 19.0569C5.86271 20.0117 6.97339 21.9018 6.97339 21.9018L19.7365 0.798828L7.26567 9.48943C6.52522 9.97657 5.92116 10.6586 5.49248 11.438C4.34283 13.8348 4.32334 16.6212 5.41453 19.0569Z" fill="url(#paint0_linear_585_179)"/>
<path d="M0.348923 25.9936C0.641207 30.0856 2.66771 33.8463 5.92182 36.321L19.6982 45.9274C19.6982 45.9274 11.0855 33.4956 3.79788 21.1417C3.05742 19.8362 2.57028 18.4137 2.33646 16.9327C2.23903 16.2703 2.23903 15.5883 2.33646 14.9062C2.1416 15.257 1.77138 15.978 1.77138 15.978C1.03092 17.4784 0.524294 19.0956 0.290466 20.7519C0.173552 22.4862 0.173552 24.2594 0.348923 25.9936Z" fill="#A0A8D4"/>
<path d="M35.4982 27.6691C35.05 26.7143 33.9393 24.8242 33.9393 24.8242L21.1763 45.9272L33.6276 37.2366C34.368 36.7495 34.9721 36.0674 35.4008 35.288C36.5699 32.8718 36.5894 30.0853 35.4982 27.6691Z" fill="url(#paint1_linear_585_179)"/>
<path d="M40.5671 20.7131C40.2747 16.6212 38.2483 12.8604 34.9942 10.3857L21.2178 0.779297C21.2178 0.779297 29.8305 13.2111 37.1181 25.565C37.8586 26.8706 38.3457 28.293 38.5795 29.774C38.677 30.4364 38.677 31.1184 38.5795 31.8005C38.7744 31.4497 39.1446 30.7288 39.1446 30.7288C39.8851 29.2283 40.3917 27.611 40.6255 25.9547C40.7424 24.2205 40.7424 22.4668 40.5671 20.7131Z" fill="#A0A8D4"/>
<path d="M5.49313 11.438C5.92182 10.6586 6.52587 9.97657 7.26633 9.48943L19.7176 0.798828L6.95455 21.9018C6.95455 21.9018 5.84388 20.0117 5.39571 19.0569C4.30451 16.6212 4.34348 13.8348 5.49313 11.438ZM0.348923 25.9938C0.641207 30.0858 2.66771 33.8464 5.92182 36.3211L19.6982 45.9275C19.6982 45.9275 11.0855 33.4957 3.79788 21.1418C3.05742 19.8363 2.57028 18.4138 2.33646 16.933C2.23903 16.2704 2.23903 15.5884 2.33646 14.9065C2.1416 15.2572 1.77138 15.9782 1.77138 15.9782C1.03092 17.4785 0.524294 19.0959 0.290466 20.7521C0.173552 22.4864 0.173552 24.2596 0.348923 25.9938ZM35.4815 27.6695C35.0334 26.7147 33.9227 24.8246 33.9227 24.8246L21.1791 45.9275L33.6304 37.237C34.3709 36.7499 34.9749 36.0678 35.4036 35.2885C36.5532 32.8917 36.5923 30.1053 35.4815 27.6695ZM40.5478 20.7327C40.2556 16.6406 38.2291 12.8799 34.9749 10.4053L21.2181 0.798828C21.2181 0.798828 29.8307 13.2306 37.1183 25.5846C37.8588 26.8901 38.3459 28.3126 38.5797 29.7934C38.6772 30.456 38.6772 31.138 38.5797 31.8199C38.7746 31.4692 39.1448 30.7482 39.1448 30.7482C39.8853 29.2479 40.392 27.6306 40.6258 25.9743C40.7622 24.2206 40.7622 22.4668 40.5867 20.7132L40.5478 20.7327Z" fill="url(#paint2_linear_585_179)"/>
</g>
<defs>
<linearGradient id="paint0_linear_585_179" x1="20.2798" y1="1.30189" x2="3.89598" y2="19.0631" gradientUnits="userSpaceOnUse">
<stop offset="0.58" stop-color="#A0A8D4"/>
<stop offset="0.73" stop-color="#8791C7"/>
<stop offset="0.91" stop-color="#6470B4"/>
</linearGradient>
<linearGradient id="paint1_linear_585_179" x1="20.6304" y1="45.4132" x2="37.0166" y2="27.6554" gradientUnits="userSpaceOnUse">
<stop offset="0.58" stop-color="#A0A8D4"/>
<stop offset="0.73" stop-color="#8791C7"/>
<stop offset="0.91" stop-color="#6470B4"/>
</linearGradient>
<linearGradient id="paint2_linear_585_179" x1="20.4558" y1="0.565605" x2="20.4558" y2="46.0674" gradientUnits="userSpaceOnUse">
<stop stop-color="#513EFF"/>
<stop offset="0.18" stop-color="#5157FF"/>
<stop offset="0.57" stop-color="#5298FF"/>
<stop offset="1" stop-color="#52E5FF"/>
</linearGradient>
<clipPath id="clip0_585_179">
<rect x="0.208496" y="0.779297" width="41.3859" height="45.1482" rx="10" fill="white"/>
</clipPath>
</defs>
</svg>
