<svg viewBox="0 0 28 28" fill="none" xmlns="http://www.w3.org/2000/svg">
<path d="M27.065 24.935L21.965 19.85C23.6105 17.7537 24.5033 15.165 24.5 12.5C24.5 10.1266 23.7962 7.80655 22.4776 5.83316C21.1591 3.85977 19.2849 2.3217 17.0922 1.41345C14.8995 0.505199 12.4867 0.267559 10.1589 0.730582C7.83115 1.1936 5.69295 2.33649 4.01472 4.01472C2.33649 5.69295 1.1936 7.83115 0.730582 10.1589C0.267559 12.4867 0.505199 14.8995 1.41345 17.0922C2.3217 19.2849 3.85977 21.1591 5.83316 22.4776C7.80655 23.7962 10.1266 24.5 12.5 24.5C15.165 24.5033 17.7537 23.6105 19.85 21.965L24.935 27.065C25.0745 27.2056 25.2404 27.3172 25.4231 27.3933C25.6059 27.4695 25.802 27.5087 26 27.5087C26.198 27.5087 26.3941 27.4695 26.5769 27.3933C26.7597 27.3172 26.9256 27.2056 27.065 27.065C27.2056 26.9256 27.3172 26.7597 27.3933 26.5769C27.4695 26.3941 27.5087 26.198 27.5087 26C27.5087 25.802 27.4695 25.6059 27.3933 25.4231C27.3172 25.2404 27.2056 25.0745 27.065 24.935ZM3.50001 12.5C3.50001 10.72 4.02785 8.97992 5.01678 7.49987C6.00571 6.01983 7.41132 4.86628 9.05585 4.18509C10.7004 3.5039 12.51 3.32567 14.2558 3.67294C16.0016 4.0202 17.6053 4.87737 18.864 6.13604C20.1226 7.39472 20.9798 8.99836 21.3271 10.7442C21.6743 12.49 21.4961 14.2996 20.8149 15.9442C20.1337 17.5887 18.9802 18.9943 17.5001 19.9832C16.0201 20.9722 14.28 21.5 12.5 21.5C10.1131 21.5 7.82387 20.5518 6.13604 18.864C4.44822 17.1761 3.50001 14.887 3.50001 12.5Z" fill="black"/>
</svg>
