<svg viewBox="0 0 22 18" fill="none" xmlns="http://www.w3.org/2000/svg">
<path fill-rule="evenodd" clip-rule="evenodd" d="M7.94615 16.0855C7.31467 16.0855 7.42802 15.8509 7.20133 15.2721L5.35547 9.39076L16.8193 2.47705L18.1632 2.82117L17.0459 5.76184L7.94615 16.0855Z" fill="#C8DAEA"/>
<path fill-rule="evenodd" clip-rule="evenodd" d="M7.9458 16.0861C8.43155 16.0861 8.64205 15.8671 8.91731 15.6169C9.33829 15.2258 14.7464 10.1422 14.7464 10.1422L11.427 9.36011L8.3506 11.2371L7.9458 15.9297V16.0861Z" fill="#A9C9DD"/>
<path fill-rule="evenodd" clip-rule="evenodd" d="M8.26973 11.2995L16.1066 16.8836C16.9971 17.3529 17.6448 17.1183 17.8715 16.0859L21.0612 1.57024C21.3851 0.303251 20.5593 -0.259856 19.7011 0.115549L0.983424 7.09183C-0.295727 7.59237 -0.279535 8.28061 0.756739 8.5778L5.5657 10.0325L16.6895 3.25957C17.2076 2.94673 17.6933 3.11879 17.3047 3.46291L8.26973 11.2995Z" fill="white"/>
</svg>
