<svg viewBox="0 0 21 21" fill="none" xmlns="http://www.w3.org/2000/svg">
<g clip-path="url(#clip0_1_2921)">
<path d="M17.5876 11.7302C15.8876 11.3064 14.1998 10.9546 13.3854 9.9539C12.1548 8.44295 11.7537 5.50747 11.5656 3.06629C11.4928 2.11484 11.5255 0.700167 10.8066 0.922299V13.2123C13.9859 13.1145 17.0515 12.7499 18.6992 12.3905C18.6127 12.0236 18.1699 11.875 17.5876 11.7294V11.7302Z" fill="currentColor"/>
<path d="M10.8065 19.1819C10.8285 19.1819 10.8505 19.1819 10.8725 19.1804C11.6527 19.1371 12.1895 18.0576 12.5186 17.4041C12.9288 16.5891 13.2518 15.7711 13.731 15.1517C14.3952 14.2942 15.7237 13.8007 16.8936 13.4625C17.2174 13.3685 18.4784 13.1866 18.6831 12.6817C18.608 12.6968 14.9328 13.4406 10.8057 13.6233V19.1819H10.8065Z" fill="currentColor"/>
<path d="M18.7135 12.5348C18.7135 12.5478 18.712 12.5578 18.7112 12.5693C18.7112 12.5639 18.7143 12.5586 18.7143 12.5532C18.7143 12.5463 18.7143 12.5409 18.7143 12.5348H18.7135Z" fill="currentColor"/>
<path d="M4.02558 11.7303C5.72556 11.3065 7.41341 10.9547 8.22776 9.95396C9.45838 8.44301 9.85949 5.50753 10.0475 3.06635C10.1203 2.1149 10.0877 0.700228 10.8065 0.92236V13.2124C7.62723 13.1146 4.56166 12.7499 2.914 12.3906C3.00044 12.0237 3.44325 11.8751 4.02558 11.7295V11.7303Z" fill="currentColor"/>
<path d="M10.8064 19.182C10.7844 19.182 10.7624 19.182 10.7405 19.1805C9.96022 19.1372 9.42339 18.0577 9.09431 17.4042C8.6841 16.5892 8.36109 15.7711 7.88188 15.1518C7.21766 14.2943 5.88923 13.8008 4.71926 13.4626C4.39549 13.3686 3.13453 13.1867 2.92981 12.6818C3.00488 12.6969 6.68007 13.4407 10.8072 13.6234V19.182H10.8064Z" fill="currentColor"/>
<path d="M2.89945 12.5346C2.89945 12.5477 2.90098 12.5577 2.90175 12.5692C2.90175 12.5638 2.89868 12.5584 2.89868 12.5531C2.89868 12.5461 2.89868 12.5408 2.89868 12.5346H2.89945Z" fill="currentColor"/>
</g>
<defs>
<clipPath id="clip0_1_2921">
<rect width="19.7305" height="19.7305" fill="white" transform="translate(0.585571 0.404968)"/>
</clipPath>
</defs>
</svg>
