<svg viewBox="0 0 25 25" fill="none" xmlns="http://www.w3.org/2000/svg">
<g clip-path="url(#clip0_1_2913)">
<path d="M23.1352 12.4083L20.6923 9.61499L21.0327 5.92063L17.4185 5.09966L15.5262 1.89589L12.1222 3.35761L8.71822 1.89589L6.82599 5.08965L3.21173 5.90061L3.55213 9.60497L1.10925 12.4083L3.55213 15.2016L3.21173 18.9059L6.82599 19.7269L8.71822 22.9207L12.1222 21.4489L15.5262 22.9107L17.4185 19.7169L21.0327 18.8959L20.6923 15.2016L23.1352 12.4083ZM10.21 17.1338L6.40549 13.3194L7.88724 11.8376L10.21 14.1704L16.0669 8.29343L17.5486 9.77518L10.21 17.1338Z" fill="#55FF79"/>
</g>
<defs>
<clipPath id="clip0_1_2913">
<rect width="24.0283" height="24.0283" fill="white" transform="translate(0.108032 0.394165)"/>
</clipPath>
</defs>
</svg>
