<svg viewBox="0 0 26 24" fill="none" xmlns="http://www.w3.org/2000/svg">
  <path d="M24.667 9.5h-.834v-5A.833.833 0 0 0 23 3.667H3a.833.833 0 0 1-.833-.684v-.3A.833.833 0 0 1 3 2h19.65a.833.833 0 1 0 0-1.667H3a2.5 2.5 0 0 0-2.5 2.5c-.006.1-.006.2 0 .3v17.142a3.416 3.416 0 0 0 3.442 3.392H23a.833.833 0 0 0 .833-.834v-5h.834A.833.833 0 0 0 25.5 17v-6.667a.833.833 0 0 0-.833-.833Zm-2.5 12.5H3.942a1.758 1.758 0 0 1-1.775-1.725V5.233c.27.079.552.112.833.1h19.167V9.5h-5.834a4.167 4.167 0 0 0 0 8.333h5.834V22Zm1.666-5.833h-7.5a2.5 2.5 0 0 1 0-5h7.5v5Z" fill="#55FF79"/>
  <path d="M17.175 14.917a1.25 1.25 0 1 0 0-2.5 1.25 1.25 0 0 0 0 2.5Z" fill="#55FF79"/>
</svg>