<svg width="32" height="32" viewBox="0 0 32 32" fill="none" xmlns="http://www.w3.org/2000/svg">
<g clip-path="url(#clip0_104_9)">
<path d="M28 0H4C1.79086 0 0 1.79086 0 4V28C0 30.2091 1.79086 32 4 32H28C30.2091 32 32 30.2091 32 28V4C32 1.79086 30.2091 0 28 0Z" fill="#64A9DC"/>
<path d="M26.5688 5.88736L4.92208 14.2365C3.44465 14.8293 3.45341 15.6534 4.65278 16.0208L10.0515 17.7059L12.1172 24.0391C12.3684 24.7323 12.2446 25.0072 12.9725 25.0072C13.5342 25.0072 13.7834 24.7511 14.0963 24.4455C14.2952 24.2508 15.4765 23.1023 16.7955 21.8199L22.4112 25.969C23.4446 26.5391 24.1907 26.2438 24.448 25.0093L28.1343 7.63809C28.5118 6.12498 27.5575 5.43864 26.5688 5.88736ZM10.8988 17.3187L23.0677 9.64133C23.6751 9.27292 24.2321 9.47099 23.7748 9.87694L13.3551 19.2781L12.9494 23.6054L10.8988 17.3187V17.3187Z" fill="white"/>
</g>
<defs>
<clipPath id="clip0_104_9">
<rect width="32" height="32" fill="white"/>
</clipPath>
</defs>
</svg>
