<svg width="32" height="32" viewBox="0 0 32 32" fill="none" xmlns="http://www.w3.org/2000/svg">
<mask id="path-1-inside-1_1533_2161" fill="white">
<path fill-rule="evenodd" clip-rule="evenodd" d="M3 9C2.44772 9 2 9.44772 2 10V24C2 24.5523 2.44771 25 3 25H29C29.5523 25 30 24.5523 30 24V10C30 9.44772 29.5523 9 29 9H3ZM15 11H4V13H15V11ZM4 21H12V23H4V21ZM19 16H4V18H19V16Z"/>
</mask>
<path fill-rule="evenodd" clip-rule="evenodd" d="M3 9C2.44772 9 2 9.44772 2 10V24C2 24.5523 2.44771 25 3 25H29C29.5523 25 30 24.5523 30 24V10C30 9.44772 29.5523 9 29 9H3ZM15 11H4V13H15V11ZM4 21H12V23H4V21ZM19 16H4V18H19V16Z" fill="#55FF79"/>
<path d="M4 11V8.85714H1.85714V11H4ZM15 11H17.1429V8.85714H15V11ZM4 13H1.85714V15.1429H4V13ZM15 13V15.1429H17.1429V13H15ZM12 21H14.1429V18.8571H12V21ZM4 21V18.8571H1.85714V21H4ZM12 23V25.1429H14.1429V23H12ZM4 23H1.85714V25.1429H4V23ZM4 16V13.8571H1.85714V16H4ZM19 16H21.1429V13.8571H19V16ZM4 18H1.85714V20.1429H4V18ZM19 18V20.1429H21.1429V18H19ZM4.14286 10C4.14286 10.6312 3.63118 11.1429 3 11.1429V6.85714C1.26425 6.85714 -0.142857 8.26425 -0.142857 10H4.14286ZM4.14286 24V10H-0.142857V24H4.14286ZM3 22.8571C3.63118 22.8571 4.14286 23.3688 4.14286 24H-0.142857C-0.142857 25.7358 1.26425 27.1429 3 27.1429V22.8571ZM29 22.8571H3V27.1429H29V22.8571ZM27.8571 24C27.8571 23.3688 28.3688 22.8571 29 22.8571V27.1429C30.7358 27.1429 32.1429 25.7358 32.1429 24H27.8571ZM27.8571 10V24H32.1429V10H27.8571ZM29 11.1429C28.3688 11.1429 27.8571 10.6312 27.8571 10H32.1429C32.1429 8.26425 30.7358 6.85714 29 6.85714V11.1429ZM3 11.1429H29V6.85714H3V11.1429ZM4 13.1429H15V8.85714H4V13.1429ZM6.14286 13V11H1.85714V13H6.14286ZM15 10.8571H4V15.1429H15V10.8571ZM12.8571 11V13H17.1429V11H12.8571ZM12 18.8571H4V23.1429H12V18.8571ZM14.1429 23V21H9.85714V23H14.1429ZM4 25.1429H12V20.8571H4V25.1429ZM1.85714 21V23H6.14286V21H1.85714ZM4 18.1429H19V13.8571H4V18.1429ZM6.14286 18V16H1.85714V18H6.14286ZM19 15.8571H4V20.1429H19V15.8571ZM16.8571 16V18H21.1429V16H16.8571Z" fill="#55FF79" mask="url(#path-1-inside-1_1533_2161)"/>
</svg>
