<svg width="32" height="32" viewBox="0 0 32 32" fill="none" xmlns="http://www.w3.org/2000/svg">
<path d="M27 14.8217C27 14.3913 26.6174 14.0087 26.187 14.0087C26.0913 14.0087 26.0435 14.0087 25.9478 14.0565L20.1609 15.7304C19.9696 15.7783 19.7304 15.8261 19.5391 15.7783L13.9913 14.8696L14.087 14.3913V13.913H17.4348C17.9609 13.913 18.3913 13.4826 18.3913 12.9565C18.3913 12.4304 17.9609 12 17.4348 12H11.4565C11.3609 12 11.313 12 11.2174 12.0478L9.78261 12.8609V16.9261L14.9 19.0783C14.9957 19.1261 15.1391 19.1261 15.2348 19.0783L26.4261 15.587C26.7609 15.4913 27 15.2043 27 14.8217V14.8217ZM7.86957 14.8696H6.91304V12H5V18.2174H8.82609V12H7.86957V14.8696ZM7.86957 17.2609H6.91304V15.8261H7.86957V17.2609Z" fill="#55FF79"/>
</svg>
