<svg width="32" height="32" viewBox="0 0 32 32" fill="none" xmlns="http://www.w3.org/2000/svg">
<path d="M15.5 4C8.6 4 3 9.6 3 16.5C3 23.4 8.6 29 15.5 29C22.4 29 28 23.4 28 16.5C28 9.6 22.4 4 15.5 4ZM15.5 26.5C9.9875 26.5 5.5 22.0125 5.5 16.5C5.5 10.9875 9.9875 6.5 15.5 6.5C21.0125 6.5 25.5 10.9875 25.5 16.5C25.5 22.0125 21.0125 26.5 15.5 26.5ZM8.625 23.375L18.0125 19.0125L22.375 9.625L12.9875 13.9875L8.625 23.375ZM15.5 15.125C16.2625 15.125 16.875 15.7375 16.875 16.5C16.875 17.2625 16.2625 17.875 15.5 17.875C14.7375 17.875 14.125 17.2625 14.125 16.5C14.125 15.7375 14.7375 15.125 15.5 15.125Z" fill="#55FF79"/>
</svg>
