<svg width="32" height="32" viewBox="0 0 32 32" fill="none" xmlns="http://www.w3.org/2000/svg">
<path d="M20.7778 6.5H19.7222C19.0889 6.5 18.6667 6.92222 18.6667 7.55556C18.6667 8.18889 19.0889 8.61111 19.7222 8.61111H20.7778C21.9389 8.61111 22.8889 9.56111 22.8889 10.7222V11.8833C22.8889 12.5167 23.3111 12.9389 23.9444 12.9389C24.5778 12.9389 25 12.5167 25 11.8833V10.7222C25 8.4 23.1 6.5 20.7778 6.5ZM23.9444 19.1667C23.3111 19.1667 22.8889 19.5889 22.8889 20.2222V21.2778C22.8889 22.4389 21.9389 23.3889 20.7778 23.3889H19.7222C19.0889 23.3889 18.6667 23.8111 18.6667 24.4444C18.6667 25.0778 19.0889 25.5 19.7222 25.5H20.7778C23.1 25.5 25 23.6 25 21.2778V20.2222C25 19.5889 24.5778 19.1667 23.9444 19.1667ZM11.2778 23.3889H10.2222C9.06111 23.3889 8.11111 22.4389 8.11111 21.2778V20.2222C8.11111 19.5889 7.68889 19.1667 7.05556 19.1667C6.42222 19.1667 6 19.5889 6 20.2222V21.2778C6 23.6 7.9 25.5 10.2222 25.5H11.2778C11.9111 25.5 12.3333 25.0778 12.3333 24.4444C12.3333 23.8111 11.9111 23.3889 11.2778 23.3889ZM7.05556 12.8333C7.68889 12.8333 8.11111 12.4111 8.11111 11.7778V10.7222C8.11111 9.56111 9.06111 8.61111 10.2222 8.61111H11.2778C11.9111 8.61111 12.3333 8.18889 12.3333 7.55556C12.3333 6.92222 11.9111 6.5 11.2778 6.5H10.2222C7.9 6.5 6 8.4 6 10.7222V11.7778C6 12.3056 6.42222 12.8333 7.05556 12.8333Z" fill="#55FF79"/>
<path d="M15.5 16C17.2489 16 18.6667 14.5822 18.6667 12.8333C18.6667 11.0844 17.2489 9.66667 15.5 9.66667C13.7511 9.66667 12.3333 11.0844 12.3333 12.8333C12.3333 14.5822 13.7511 16 15.5 16Z" fill="#55FF79"/>
<path d="M10.75 18.5333L10.3278 19.9056C10.1167 20.2222 10.2222 20.5389 10.4333 20.8556C10.6444 21.0667 10.9611 21.2778 11.2778 21.2778H19.7222C20.0389 21.2778 20.3556 21.0667 20.5667 20.8556C20.7778 20.5389 20.7778 20.2222 20.6722 19.9056L20.25 18.5333C19.7222 17.0556 18.35 16 16.7667 16H15.5H14.2333C12.65 16 11.2778 17.0556 10.75 18.5333Z" fill="#55FF79"/>
</svg>
