<svg width="32" height="32" viewBox="0 0 32 32" fill="none" xmlns="http://www.w3.org/2000/svg">
<path d="M14.061 17.4024C13.7927 17.161 13.6585 16.8122 13.6585 16.4634C13.6585 16.1683 13.7659 15.9 13.9268 15.6585H16.0732C16.4756 16.1951 16.422 16.9195 15.939 17.4024C15.4293 17.939 14.5707 17.939 14.061 17.4024ZM16.7171 18.1537C16.2341 18.6366 15.6171 18.878 15 18.878C14.3829 18.878 13.7659 18.6366 13.2829 18.1805C12.8268 17.7244 12.5854 17.1073 12.5854 16.4634C12.5854 16.1951 12.639 15.9268 12.7195 15.6585H4V24.2439C4 25.1293 4.72439 25.8537 5.60976 25.8537H24.3902C25.2756 25.8537 26 25.1293 26 24.2439V15.6585H17.2805C17.5756 16.5171 17.3878 17.4829 16.7171 18.1537ZM24.3902 9.21951H5.60976C4.72439 9.21951 4 9.9439 4 10.8293V14.5854H26V10.8293C26 9.9439 25.2756 9.21951 24.3902 9.21951ZM18.7561 6H11.2439V8.14634H18.7561V6Z" fill="#55FF79"/>
</svg>
