<svg width="32" height="32" viewBox="0 0 32 32" fill="none" xmlns="http://www.w3.org/2000/svg">
<path d="M11.3621 5.19092L7.20605 9.09078H11.3621V5.19092Z" fill="#55FF79"/>
<path d="M23.6597 5H12.0425V9.4312C12.0425 9.61928 11.8902 9.77147 11.7023 9.77147H7V26.4371C7 26.6243 7.15313 26.7774 7.34027 26.7774H23.6597C23.8469 26.7774 24 26.6243 24 26.4371V5.34027C24 5.15313 23.8469 5 23.6597 5ZM21.0039 23.2867H9.90253V22.6061H21.0039V23.2867ZM21.0039 21.0363H9.90253V20.3558H21.0039V21.0363ZM21.0039 18.7864H9.90253V18.1058H21.0039V18.7864ZM21.0039 16.536H9.90253V15.8555H21.0039V16.536ZM21.0039 14.2861H9.90253V13.6055H21.0039V14.2861ZM21.0039 12.0361H9.90253V11.3555H21.0039V12.0361Z" fill="#55FF79"/>
</svg>
