<svg width="32" height="32" viewBox="0 0 32 32" fill="none" xmlns="http://www.w3.org/2000/svg">
<path d="M22 19.9753V13.2963C22.0285 11.4401 21.3384 9.64471 20.0739 8.28554C18.8094 6.92636 17.0684 6.10863 15.215 6.0033C14.2778 5.9745 13.3444 6.13428 12.4701 6.47315C11.5959 6.81201 10.7986 7.32306 10.1257 7.97596C9.45272 8.62886 8.91779 9.41031 8.55264 10.2739C8.18749 11.1375 7.99956 12.0657 8 13.0033V16.0033C8 18.6555 9.05357 21.199 10.9289 23.0744C12.8043 24.9497 15.3478 26.0033 18 26.0033H24L23.68 25.5223C22.5843 23.8799 21.9997 21.9497 22 19.9753V19.9753ZM12 14.0033V13.0033C12 12.7381 12.1054 12.4837 12.2929 12.2962C12.4804 12.1087 12.7348 12.0033 13 12.0033C13.2652 12.0033 13.5196 12.1087 13.7071 12.2962C13.8946 12.4837 14 12.7381 14 13.0033V14.0033C14 14.2685 13.8946 14.5229 13.7071 14.7104C13.5196 14.8979 13.2652 15.0033 13 15.0033C12.7348 15.0033 12.4804 14.8979 12.2929 14.7104C12.1054 14.5229 12 14.2685 12 14.0033ZM16 19.0033H14C13.7348 19.0033 13.4804 18.8979 13.2929 18.7104C13.1054 18.5229 13 18.2685 13 18.0033C13 17.7381 13.1054 17.4837 13.2929 17.2962C13.4804 17.1087 13.7348 17.0033 14 17.0033H16C16.2652 17.0033 16.5196 17.1087 16.7071 17.2962C16.8946 17.4837 17 17.7381 17 18.0033C17 18.2685 16.8946 18.5229 16.7071 18.7104C16.5196 18.8979 16.2652 19.0033 16 19.0033ZM18 14.0033C18 14.2685 17.8946 14.5229 17.7071 14.7104C17.5196 14.8979 17.2652 15.0033 17 15.0033C16.7348 15.0033 16.4804 14.8979 16.2929 14.7104C16.1054 14.5229 16 14.2685 16 14.0033V13.0033C16 12.7381 16.1054 12.4837 16.2929 12.2962C16.4804 12.1087 16.7348 12.0033 17 12.0033C17.2652 12.0033 17.5196 12.1087 17.7071 12.2962C17.8946 12.4837 18 12.7381 18 13.0033V14.0033Z" fill="#55FF79"/>
</svg>
