<svg width="32" height="32" viewBox="0 0 32 32" fill="none" xmlns="http://www.w3.org/2000/svg">
<path d="M11 16C8.2 16 6 18.2 6 21C6 23.8 8.2 26 11 26C13.8 26 16 23.8 16 21C16 18.2 13.8 16 11 16ZM15 11C12.6 11 10.4 12.5 9.5 14.7C13 13.8 16.5 16 17.3 19.4C17.6 20.4 17.6 21.5 17.3 22.5C20.4 21.2 21.8 17.7 20.5 14.7C19.6 12.5 17.4 11 15 11ZM25.2 9.8C24.1 7.5 21.6 6 19 6C16.4 6 13.9 7.5 12.8 9.8C16.8 8.6 21 10.8 22.2 14.7C22.7 16.2 22.7 17.7 22.2 19.2C25.6 17.5 27 13.3 25.2 9.8Z" fill="#55FF79"/>
</svg>
