<svg width="32" height="32" viewBox="0 0 32 32" fill="none" xmlns="http://www.w3.org/2000/svg">
<path d="M9.48566 18.8979C9.36566 19.1528 9.30566 19.4378 9.30566 19.7379V21.6828C9.30566 21.9579 9.53067 22.1828 9.80567 22.1828H11.6672V20.1785C11.6672 19.9024 11.8909 19.6785 12.1673 19.6785C12.4436 19.6785 12.6673 19.9024 12.6673 20.1785V22.1828H18.3348V20.1785C18.3348 19.9024 18.5584 19.6785 18.8348 19.6785C19.1111 19.6785 19.3348 19.9024 19.3348 20.1785V22.1828H21.1957C21.4707 22.1828 21.6957 21.9579 21.6957 21.6828V19.6428C21.6957 19.4228 21.6657 19.2178 21.6007 19.0229C21.1857 17.7778 19.6207 16.9428 17.0807 16.6078C16.9507 16.5878 16.8107 16.6278 16.7007 16.7128C15.9007 17.3478 15.1857 17.3828 14.3907 16.8078C14.3707 16.7828 14.3507 16.7578 14.3257 16.7328C14.2257 16.6428 14.0907 16.5928 13.9507 16.6028C11.6457 16.7828 10.1007 17.5778 9.48566 18.8979Z" fill="#55FF79"/>
<path d="M15.5002 15.766C17.0924 15.766 18.3832 14.4753 18.3832 12.883C18.3832 11.2908 17.0924 10 15.5002 10C13.908 10 12.6172 11.2908 12.6172 12.883C12.6172 14.4753 13.908 15.766 15.5002 15.766Z" fill="#55FF79"/>
<path d="M27.9244 19.703C27.5994 18.733 26.4544 18.108 24.5194 17.8529C24.3844 17.833 24.2494 17.8729 24.1444 17.958C23.6144 18.3779 23.1594 18.4029 22.6344 18.0329C22.6244 18.0129 22.6044 17.9979 22.5894 17.983C22.4894 17.8879 22.3494 17.8379 22.2094 17.8479C22.1744 17.8529 22.1394 17.8529 22.1094 17.858C22.3194 18.148 22.4594 18.4379 22.5494 18.708C22.6444 19.0029 22.6944 19.3079 22.6944 19.643V21.683C22.6944 21.858 22.6644 22.028 22.6044 22.188H25.2794V20.5879C25.2794 20.3129 25.5044 20.0879 25.7794 20.0879C26.0544 20.0879 26.2794 20.3129 26.2794 20.5879V22.188H27.4994C27.7744 22.188 27.9994 21.963 27.9994 21.688V20.198C27.9994 20.023 27.9744 19.858 27.9244 19.708C27.9244 19.708 27.9244 19.708 27.9244 19.703Z" fill="#55FF79"/>
<path d="M25.1932 16.6764C26.2086 15.661 26.2086 14.0148 25.1932 12.9994C24.1778 11.984 22.5316 11.984 21.5162 12.9994C20.5009 14.0148 20.5009 15.661 21.5162 16.6764C22.5316 17.6917 24.1778 17.6917 25.1932 16.6764Z" fill="#55FF79"/>
<path d="M3.07501 19.7073C3.02499 19.8623 3 20.0223 3 20.1973V21.6873C3 21.9623 3.22501 22.1873 3.5 22.1873H4.72001V20.5873C4.72001 20.3123 4.94502 20.0873 5.22001 20.0873C5.49501 20.0873 5.72001 20.3123 5.72001 20.5873V22.1873H8.39502C8.33502 22.0273 8.30502 21.8573 8.30502 21.6823V19.7373C8.30502 19.2823 8.40002 18.8573 8.58001 18.4723C8.67004 18.2773 8.78503 18.0723 8.93503 17.8623C8.89004 17.8573 8.84002 17.8523 8.79004 17.8473C8.65002 17.8373 8.51004 17.8973 8.41003 17.9923C8.40002 17.9973 8.39502 18.0073 8.38504 18.0123C7.85503 18.4023 7.39004 18.3823 6.85503 17.9573C6.75002 17.8723 6.61501 17.8323 6.48003 17.8523C4.54502 18.1073 3.4 18.7323 3.07501 19.7073ZM7.65002 12.2373C6.21501 12.2373 5.05 13.4023 5.05 14.8373C5.05 16.2723 6.21501 17.4373 7.65002 17.4373C9.08002 17.4373 10.245 16.2723 10.245 14.8373C10.245 13.4023 9.08002 12.2373 7.65002 12.2373Z" fill="#55FF79"/>
</svg>
