<svg width="32" height="32" viewBox="0 0 32 32" fill="none" xmlns="http://www.w3.org/2000/svg">
<path fill-rule="evenodd" clip-rule="evenodd" d="M6 6H12.6667V9.47827H6V6ZM13.0833 6H19.75V9.47827H13.0833V6ZM20.1667 6H26V9.47827H20.1667V6ZM8.91671 9.91305H15.5834V13.3913H8.91671V9.91305ZM16 9.91305H22.6667V13.3913H16V9.91305ZM23.0833 9.91305H26V13.3913H23.0833V9.91305ZM6 9.91305H8.49998V13.3913H6V9.91305ZM6 13.8261H12.6667V17.3044H6V13.8261ZM13.0833 13.8261H19.75V17.3044H13.0833V13.8261ZM20.1667 13.8261H26V17.3044H20.1667V13.8261Z" fill="#55FF79"/>
<path fill-rule="evenodd" clip-rule="evenodd" d="M8.91671 17.7392H15.5834V21.2174H8.91671V17.7392ZM16 17.7392H22.6667V21.2174H16V17.7392ZM23.0833 17.7392H26V21.2174H23.0833V17.7392ZM6 17.7392H8.49998V21.2174H6V17.7392Z" fill="#55FF79"/>
<path fill-rule="evenodd" clip-rule="evenodd" d="M6 21.6522H12.6667V25.1305H6V21.6522ZM13.0833 21.6522H19.75V25.1305H13.0833V21.6522ZM20.1667 21.6522H26V25.1305H20.1667V21.6522Z" fill="#55FF79"/>
</svg>
