<svg width="32" height="32" viewBox="0 0 32 32" fill="none" xmlns="http://www.w3.org/2000/svg">
<path d="M19.2758 7.0679H17.9358C17.823 7.0679 17.7148 7.02311 17.6351 6.94337C17.5554 6.86363 17.5106 6.75548 17.5106 6.64271V5.30259C17.5106 5.18982 17.5554 5.08167 17.6351 5.00193C17.7148 4.92219 17.823 4.8774 17.9358 4.8774H19.2758C19.3885 4.8774 19.4967 4.92219 19.5764 5.00193C19.6562 5.08167 19.701 5.18982 19.701 5.30259V6.6426C19.701 6.69845 19.69 6.75375 19.6686 6.80535C19.6473 6.85695 19.6159 6.90383 19.5765 6.94333C19.537 6.98282 19.4901 7.01415 19.4385 7.03553C19.3869 7.0569 19.3316 7.0679 19.2758 7.0679V7.0679ZM22.7221 7.0679H21.3821C21.2693 7.0679 21.1612 7.02311 21.0814 6.94337C21.0017 6.86363 20.9569 6.75548 20.9569 6.64271V5.30259C20.9569 5.18982 21.0017 5.08167 21.0814 5.00193C21.1612 4.92219 21.2693 4.8774 21.3821 4.8774H22.7221C22.8349 4.8774 22.943 4.92219 23.0228 5.00193C23.1025 5.08167 23.1473 5.18982 23.1473 5.30259V6.6426C23.1473 6.69845 23.1363 6.75375 23.115 6.80535C23.0936 6.85695 23.0623 6.90383 23.0228 6.94333C22.9833 6.98282 22.9364 7.01415 22.8848 7.03553C22.8332 7.0569 22.7779 7.0679 22.7221 7.0679V7.0679ZM26.1684 7.0679H24.8284C24.7156 7.0679 24.6075 7.02311 24.5277 6.94337C24.448 6.86363 24.4032 6.75548 24.4032 6.64271V5.30259C24.4032 5.18982 24.448 5.08167 24.5277 5.00193C24.6075 4.92219 24.7156 4.8774 24.8284 4.8774H26.1684C26.2812 4.8774 26.3893 4.92219 26.4691 5.00193C26.5488 5.08167 26.5936 5.18982 26.5936 5.30259V6.6426C26.5936 6.69845 26.5826 6.75375 26.5613 6.80535C26.5399 6.85695 26.5086 6.90383 26.4691 6.94333C26.4296 6.98282 26.3828 7.01415 26.3312 7.03553C26.2796 7.0569 26.2243 7.0679 26.1684 7.0679V7.0679Z" fill="#55FF79"/>
<path d="M15.5001 26.9021C10.7531 26.9021 6.89114 23.0402 6.89114 18.2932C6.89114 13.5462 10.7531 9.68411 15.5001 9.68411C20.2471 9.68411 24.1091 13.5462 24.1091 18.2932C24.1091 23.0402 20.2471 26.9021 15.5001 26.9021ZM15.5001 10.1093C10.9875 10.1093 7.31634 13.7806 7.31634 18.2932C7.31634 22.8058 10.9875 26.4769 15.5001 26.4769C20.0127 26.4769 23.6839 22.8057 23.6839 18.2932C23.6839 13.7807 20.0127 10.1093 15.5001 10.1093Z" fill="#55FF79"/>
<path d="M26.4488 28.0644H4.55118C3.14442 28.0644 2 26.9198 2 25.5132V8.73352C2 8.67713 2.0224 8.62306 2.06227 8.58319C2.10214 8.54332 2.15621 8.52092 2.2126 8.52092H28.7874C28.8438 8.52092 28.8979 8.54332 28.9377 8.58319C28.9776 8.62306 29 8.67713 29 8.73352V25.5132C29 26.9199 27.8556 28.0644 26.4488 28.0644V28.0644ZM2.4252 8.94612V25.5132C2.4252 26.6854 3.37891 27.6392 4.55118 27.6392H26.4488C27.6211 27.6392 28.5748 26.6854 28.5748 25.5132V8.94612H2.4252Z" fill="#55FF79"/>
<path d="M28.7874 8.94638H2.2126C2.15621 8.94638 2.10214 8.92398 2.06227 8.88411C2.0224 8.84424 2 8.79016 2 8.73378V5.55118C2 4.14452 3.14442 3 4.55118 3H26.4488C27.8556 3 29 4.14452 29 5.55118V8.73378C29 8.79016 28.9776 8.84424 28.9377 8.88411C28.8979 8.92398 28.8438 8.94638 28.7874 8.94638ZM2.4252 8.52118H28.5748V5.55118C28.5748 4.37891 27.6211 3.4252 26.4488 3.4252H4.55118C3.37891 3.4252 2.4252 4.37891 2.4252 5.55118V8.52118Z" fill="#55FF79"/>
<path fill-rule="evenodd" clip-rule="evenodd" d="M15.6071 13.1207C15.607 13.1207 15.6069 13.1207 15.6068 13.1207V21.0187C13.3275 20.9486 11.1297 20.6871 9.94845 20.4295C10.0104 20.1664 10.3279 20.0599 10.7454 19.9555V19.9561C10.8355 19.9336 10.9257 19.9114 11.0155 19.8893C12.1397 19.6124 13.2174 19.347 13.758 18.6826C14.6403 17.5994 14.9279 15.4948 15.0627 13.7447C15.0697 13.6525 15.0754 13.5543 15.0812 13.4538C15.1042 13.0553 15.1293 12.6201 15.2508 12.3788C15.3121 12.1971 15.4481 12.0709 15.6059 12.0709C15.7601 12.0709 15.8933 12.1913 15.9566 12.366C16.0837 12.6045 16.1094 13.0482 16.1328 13.4537L16.1328 13.4537L16.1328 13.4538L16.1328 13.4538L16.1328 13.4539L16.1328 13.4539C16.1386 13.5544 16.1442 13.6525 16.1513 13.7446C16.2861 15.4948 16.5737 17.5993 17.4559 18.6825C17.9966 19.3469 19.0742 19.6123 20.1985 19.8892C20.2883 19.9113 20.3784 19.9335 20.4686 19.956V19.9555C20.8861 20.0598 21.2035 20.1663 21.2655 20.4294C20.0843 20.687 17.8865 20.9485 15.6071 21.0186V13.1207ZM15.6068 25.2983C15.6224 25.2983 15.6379 25.2983 15.6535 25.2972C16.2079 25.2665 16.591 24.5057 16.8274 24.0361L16.8336 24.0237C16.9105 23.871 16.9831 23.7182 17.0545 23.5678C17.2564 23.1427 17.4491 22.7369 17.7028 22.4089C18.179 21.7942 19.1314 21.4404 19.9702 21.198C20.0116 21.1859 20.0744 21.1719 20.1505 21.1549L20.1506 21.1549L20.1506 21.1549C20.5009 21.0766 21.1325 20.9355 21.2531 20.6381L21.2528 20.6382C21.1894 20.651 18.559 21.1824 15.6058 21.3132C12.6532 21.1824 10.0235 20.6511 9.9597 20.6383L9.95935 20.6382C10.0799 20.9356 10.7116 21.0767 11.0619 21.1549C11.138 21.1719 11.2008 21.186 11.2423 21.198C12.081 21.4404 13.0334 21.7943 13.5096 22.409C13.7634 22.737 13.9561 23.1427 14.158 23.5678C14.2294 23.7182 14.302 23.8711 14.3788 24.0238L14.3851 24.0361C14.6215 24.5058 15.0045 25.2666 15.559 25.2973C15.5748 25.2983 15.5905 25.2983 15.6063 25.2983H15.6068V25.2983ZM21.2734 20.5554C21.2739 20.5478 21.2749 20.5413 21.2749 20.5328H21.2754V20.5448C21.2754 20.5466 21.2749 20.5483 21.2744 20.5501C21.2739 20.5518 21.2734 20.5536 21.2734 20.5554ZM9.93841 20.548L9.93841 20.548L9.93887 20.5535C9.93869 20.5524 9.93835 20.5512 9.93802 20.55C9.93751 20.5483 9.93701 20.5465 9.93701 20.5447V20.5327H9.93751C9.93751 20.5384 9.93796 20.5432 9.93841 20.548ZM9.93902 20.5553L9.93887 20.5535Z" fill="url(#paint0_linear_1532_2070)"/>
<defs>
<linearGradient id="paint0_linear_1532_2070" x1="15.6062" y1="12.0709" x2="15.6062" y2="25.2983" gradientUnits="userSpaceOnUse">
<stop stop-color="#55FF79"/>
<stop offset="1" stop-color="#55FF79"/>
</linearGradient>
</defs>
</svg>
