<svg width="48" height="48" viewBox="0 0 48 48" fill="none" xmlns="http://www.w3.org/2000/svg">
<circle cx="23.8937" cy="23.8242" r="23.8248" fill="black"/>
<path d="M32.5859 18.9184H29.844C29.5245 18.9184 29.2206 18.7813 29.0091 18.5427L27.8969 17.2862C27.7313 17.0987 27.4927 16.992 27.2431 16.992C26.9935 16.992 26.7548 17.0993 26.5893 17.2862L25.6354 18.3642C25.3231 18.7167 24.875 18.9191 24.4042 18.9191H9.39552C8.96807 20.1374 8.68935 21.4243 8.57812 22.759H22.7468C22.9957 22.759 23.2343 22.6575 23.4064 22.4777L24.7256 21.1009C24.8905 20.9289 25.1181 20.8319 25.3561 20.8319H25.4104C25.6607 20.8319 25.8986 20.9393 26.0642 21.1268L27.1758 22.3833C27.3873 22.6226 27.6912 22.759 28.0107 22.759H39.5758C39.4646 21.4236 39.1859 20.1367 38.7584 18.9191H32.5853L32.5859 18.9184Z" fill="white"/>
<path d="M16.939 30.8336C17.1879 30.8336 17.4266 30.7321 17.5986 30.5523L18.9178 29.1755C19.0827 29.0035 19.3103 28.9065 19.5483 28.9065H19.6026C19.8529 28.9065 20.0909 29.0139 20.2564 29.2008L21.368 30.4572C21.5795 30.6965 21.8834 30.833 22.2029 30.833H37.8757C38.4629 29.6198 38.8929 28.318 39.149 26.9542H24.1054C23.786 26.9542 23.482 26.8171 23.2706 26.5785L22.1589 25.322C21.9934 25.1345 21.7548 25.0278 21.5051 25.0278C21.2555 25.0278 21.0169 25.1351 20.8514 25.322L19.8975 26.4C19.5852 26.7524 19.137 26.9549 18.6656 26.9549H8.57812C8.83421 28.3187 9.26489 29.6205 9.85143 30.8336H16.9383H16.939Z" fill="white"/>
<path d="M28.0468 14.7216C28.2957 14.7216 28.5344 14.62 28.7064 14.4403L30.0256 13.0635C30.1905 12.8915 30.4181 12.7945 30.6561 12.7945H30.7104C30.9607 12.7945 31.1987 12.9018 31.3642 13.0894L32.4758 14.3459C32.6873 14.5851 32.9912 14.7216 33.3107 14.7216H36.2912C33.453 10.9489 28.9385 8.50833 23.8531 8.50833C18.7676 8.50833 14.2532 10.9489 11.4143 14.7216H28.0468Z" fill="white"/>
<path d="M22.1278 34.6773H18.0518C17.7323 34.6773 17.4284 34.5402 17.2169 34.3015L16.1053 33.0451C15.9397 32.8575 15.7011 32.7508 15.4515 32.7508C15.2019 32.7508 14.9633 32.8582 14.7977 33.0451L13.8439 34.1231C13.5315 34.4755 13.0834 34.6779 12.612 34.6779H12.5486C15.3881 37.7205 19.4318 39.625 23.9216 39.625C28.4115 39.625 32.4545 37.7205 35.2947 34.6779H22.1278V34.6773Z" fill="white"/>
</svg>
