<svg width="45" height="45" viewBox="0 0 45 45" fill="none" xmlns="http://www.w3.org/2000/svg">
<circle cx="22.17" cy="22.17" r="22.17" fill="#15202A"/>
<path d="M31.1644 24.1739H35.5511C35.603 24.174 35.6549 24.1639 35.7025 24.144C35.7512 24.1242 35.7944 24.095 35.8312 24.0582C35.868 24.0215 35.8972 23.9778 35.9166 23.9298C35.9372 23.8817 35.9469 23.8302 35.9469 23.7782V20.6122C35.9469 20.5072 35.9047 20.4065 35.8312 20.3323C35.7566 20.258 35.656 20.2164 35.5511 20.2164H29.404L24.562 9.3314C24.5209 9.23885 24.4539 9.16002 24.3685 9.10455C24.2841 9.04897 24.1846 9.01902 24.0841 9.01837H20.1287C20.0271 9.01837 19.9276 9.048 19.8422 9.10358C19.7568 9.15916 19.6886 9.23831 19.6475 9.3314L14.8088 20.2164H8.66165C8.55677 20.2164 8.45621 20.258 8.3816 20.3323C8.30807 20.4065 8.2659 20.5072 8.2659 20.6122V23.7782C8.2659 23.8302 8.27563 23.8817 8.29618 23.9298C8.31564 23.9778 8.34483 24.0215 8.3816 24.0582C8.41836 24.095 8.46161 24.1242 8.51027 24.144C8.55785 24.1639 8.60975 24.174 8.66165 24.1739H13.0484L8.30266 34.8452C8.27563 34.9053 8.26482 34.971 8.27023 35.0367C8.27455 35.1023 8.29618 35.1656 8.33186 35.2208C8.36754 35.2761 8.4162 35.3216 8.47459 35.3532C8.5319 35.3848 8.59677 35.4015 8.66273 35.4018H12.1921C12.2937 35.4018 12.3943 35.3722 12.4797 35.3166C12.5651 35.261 12.6321 35.1819 12.6732 35.0888L22.1064 13.8861L31.5396 35.0888C31.5807 35.1819 31.6477 35.261 31.7331 35.3166C31.8185 35.3722 31.9191 35.4018 32.0207 35.4018H35.5501C35.616 35.4019 35.682 35.3856 35.7393 35.3541C35.7977 35.3228 35.8463 35.2773 35.8831 35.222C35.9188 35.1666 35.9404 35.1032 35.9458 35.0373C35.9512 34.9716 35.9393 34.9054 35.9123 34.8452L31.1644 24.1739Z" fill="white"/>
<path d="M31.1361 24.187H35.508C35.7256 24.187 35.9021 24.0105 35.9021 23.7929V20.6398C35.9021 20.4222 35.7256 20.2457 35.508 20.2457H29.3814L24.5547 9.40506C24.4703 9.21544 24.2822 9.09326 24.0747 9.09326H20.1406C19.933 9.09326 19.7449 9.21544 19.6605 9.40506L14.8339 20.2457H8.70722C8.48957 20.2457 8.31309 20.4222 8.31309 20.6398V23.7929C8.31309 24.0105 8.48957 24.187 8.70722 24.187H13.0791L8.34768 34.814C8.25914 35.0129 8.34847 35.2459 8.54738 35.3345C8.59782 35.3569 8.65248 35.3685 8.70774 35.3685H12.2263C12.4338 35.3685 12.622 35.2464 12.7064 35.0567L22.1076 13.9412L31.5088 35.0567C31.5932 35.2464 31.7814 35.3685 31.989 35.3685H35.5076C35.7252 35.3685 35.9017 35.1921 35.9017 34.9744C35.9017 34.9191 35.8901 34.8646 35.8676 34.8141L31.1361 24.187Z" stroke="white" stroke-width="1.00177" stroke-miterlimit="10"/>
<path d="M31.5096 35.0567C31.594 35.2463 31.7821 35.3685 31.9897 35.3685H33.1508V29.778H29.1594L31.5096 35.0567Z" fill="white"/>
<path d="M33.1958 35.4017H35.5534C35.771 35.4017 35.9475 35.2252 35.9475 35.0075C35.9475 34.9523 35.936 34.8976 35.9134 34.8472L33.6712 29.8112H33.1958V35.4017Z" fill="white"/>
<path d="M31.9841 26.1062L31.1284 24.1843V26.1062H31.9841Z" fill="white"/>
<path d="M35.5003 20.2427H31.1284V24.184H35.5003C35.718 24.184 35.8944 24.0075 35.8944 23.7898V20.6368C35.8944 20.4192 35.718 20.2427 35.5003 20.2427Z" fill="white"/>
<path d="M25.4492 21.4033L27.5444 26.1092H31.1555V21.4033H25.4492Z" fill="white"/>
<path d="M23.8188 17.7855L25.4294 21.4029H26.7529V17.7855H23.8188Z" fill="white"/>
<path d="M18.9708 20.9863L20.3958 17.7856H18.9708V20.9863Z" fill="white"/>
<path d="M31.1198 20.2457H29.3652L26.7371 14.3431V21.4031H31.1198V20.2457Z" fill="white"/>
<path d="M13.9788 27.9237V32.1842L15.8757 27.9237H13.9788Z" fill="white"/>
<path d="M13.9741 24.1869H13.0677L9.74059 31.6598H13.9741V24.1869Z" fill="white"/>
<path d="M14.3869 23.2267V28.0111H15.8172L17.9473 23.2267H14.3869Z" fill="white"/>
<path d="M19.0074 17.8018H15.9657L14.8705 20.2618H8.74379C8.52614 20.2618 8.34966 20.4383 8.34966 20.656V23.809C8.34966 24.0266 8.52614 24.2031 8.74379 24.2031H13.1156H17.5824L19.0074 21.0024V17.8018Z" fill="white"/>
<path d="M20.1371 9.01855C19.9295 9.01855 19.7415 9.14065 19.6571 9.33027L15.9258 17.7109H20.3925L22.1042 13.8665V9.01855H20.1371Z" fill="white"/>
<path d="M13.9379 31.6655H9.7168L8.30013 34.8475C8.21158 35.0464 8.301 35.2794 8.49991 35.3679C8.55035 35.3903 8.60501 35.402 8.66027 35.402H12.1788C12.3864 35.402 12.5744 35.2798 12.6588 35.0902L13.9379 32.2174V31.6655Z" fill="white"/>
<path d="M32.0028 26.0925H27.536L29.2116 29.8561H33.6784L32.0028 26.0925Z" fill="white"/>
<path d="M26.723 14.2892L26.6451 14.1143H22.1782L23.7888 17.7317H26.723V14.2892Z" fill="white"/>
<path d="M24.5218 9.33066C24.4373 9.14104 24.2493 9.01886 24.0417 9.01886H22.0747V13.8668L22.1757 14.0938H26.6425L24.5218 9.33066Z" fill="white"/>
</svg>
