<svg width="49" height="48" viewBox="0 0 49 48" fill="none" xmlns="http://www.w3.org/2000/svg">
<rect x="0.36499" y="-0.000671387" width="47.6497" height="47.6497" rx="23.8248" fill="#E6007A"/>
<g clip-path="url(#clip0_22_3565)">
<path d="M24.1904 40.2277C27.4296 40.2277 30.0555 38.7116 30.0555 36.8415C30.0555 34.9714 27.4296 33.4553 24.1904 33.4553C20.9511 33.4553 18.3252 34.9714 18.3252 36.8415C18.3252 38.7116 20.9511 40.2277 24.1904 40.2277Z" fill="white"/>
<path d="M38.2733 32.1563C39.8929 29.3717 39.8832 26.3563 38.2518 25.4212C36.6203 24.4862 33.9848 25.9855 32.3652 28.7702C30.7456 31.5548 30.7552 34.5702 32.3867 35.5052C34.0181 36.4403 36.6536 34.9409 38.2733 32.1563Z" fill="white"/>
<path d="M24.1904 14.7133C27.4296 14.7133 30.0555 13.1973 30.0555 11.3272C30.0555 9.45702 27.4296 7.94098 24.1904 7.94098C20.9511 7.94098 18.3252 9.45702 18.3252 11.3272C18.3252 13.1973 20.9511 14.7133 24.1904 14.7133Z" fill="white"/>
<path d="M16.0167 19.4008C17.6363 16.6162 17.6258 13.6002 15.9932 12.6645C14.3606 11.7288 11.7241 13.2277 10.1045 16.0123C8.48485 18.797 8.49536 21.813 10.128 22.7487C11.7606 23.6844 14.397 22.1855 16.0167 19.4008Z" fill="white"/>
<path d="M15.9939 35.5045C17.6265 34.5688 17.637 31.5529 16.0173 28.7682C14.3977 25.9836 11.7613 24.4847 10.1287 25.4204C8.49609 26.3561 8.48557 29.372 10.1052 32.1567C11.7248 34.9413 14.3613 36.4402 15.9939 35.5045Z" fill="white"/>
<path d="M38.2534 22.749C39.8849 21.814 39.8945 18.7986 38.2749 16.0139C36.6553 13.2293 34.0197 11.73 32.3882 12.665C30.7567 13.6001 30.7471 16.6155 32.3667 19.4001C33.9863 22.1847 36.6219 23.6841 38.2534 22.749Z" fill="white"/>
</g>
<defs>
<clipPath id="clip0_22_3565">
<rect width="34.0355" height="32.3049" fill="white" transform="translate(7.17188 7.94098)"/>
</clipPath>
</defs>
</svg>
