<svg width="48" height="48" viewBox="0 0 48 48" fill="none" xmlns="http://www.w3.org/2000/svg">
<circle cx="24.0341" cy="23.8242" r="23.8248" fill="#C85553"/>
<path d="M38.0149 17.9752L28.9838 22.6392V28.0971L32.0945 26.5094V29.6849L23.3645 34.6466L16.3403 30.6772C15.2365 30.0818 14.6344 28.9902 14.6344 27.7002V19.6622L21.9596 15.4943C22.8627 14.9982 23.9665 14.9982 24.97 15.4943L32.1948 19.6622L36.61 17.1813L25.3714 10.7311C24.1672 10.0365 22.7624 10.0365 21.6586 10.7311L10.4199 17.1813V30.181C10.4199 31.3718 11.1223 32.5627 12.1258 33.1581L23.5652 39.7075L35.0045 33.1581C36.1083 32.5627 36.7104 31.3718 36.7104 30.181V24.1277L38.2156 23.3339V17.9752H38.0149Z" fill="white"/>
</svg>
