<svg width="48" height="48" viewBox="0 0 48 48" fill="none" xmlns="http://www.w3.org/2000/svg">
<circle cx="24.1749" cy="23.8242" r="23.8248" fill="white"/>
<path d="M26.3731 18.2411C26.3731 13.9651 24.3465 10.2879 22.8049 9.09061C22.7986 9.08669 22.6869 9.02236 22.6964 9.19321L22.6946 9.19828C22.5662 17.4544 18.4626 19.692 16.2065 22.7064C11.0001 29.6624 15.8422 37.2889 20.7727 38.6983C23.5318 39.487 20.1356 37.3027 19.6982 32.6894C19.1695 27.1133 26.3731 22.8572 26.3731 18.2411Z" fill="#3F7FFF"/>
<path d="M29.6044 21.519C29.5059 22.5322 28.3095 24.6986 26.7928 26.6881C21.649 33.4367 24.5803 36.6894 26.2287 38.4368C27.1856 39.4511 26.2287 38.4368 28.6207 37.4002C28.8085 37.3191 33.2883 35.1464 33.7736 30.1964C34.2432 25.4033 30.9138 22.3819 29.7288 21.504C29.6922 21.4824 29.6403 21.4676 29.6044 21.519Z" fill="#3F7FFF"/>
</svg>
