<svg width="45" height="45" viewBox="0 0 45 45" fill="none" xmlns="http://www.w3.org/2000/svg">
<path d="M32.0878 11.8497L12.5131 11.8497L12.5131 29.6525H32.0878V11.8497Z" fill="white"/>
<path fill-rule="evenodd" clip-rule="evenodd" d="M38.1521 22.2698C38.1521 31.0187 31.0599 38.1109 22.311 38.1109C13.5622 38.1109 6.46985 31.0187 6.46985 22.2698C6.46985 13.521 13.5622 6.42865 22.311 6.42865C31.0599 6.42865 38.1521 13.521 38.1521 22.2698ZM17.8221 28.5738H14.7477C14.1017 28.5738 13.7826 28.5738 13.5881 28.4493C13.3779 28.313 13.2495 28.0873 13.2339 27.8382C13.2222 27.6087 13.3818 27.3284 13.7009 26.7681L21.2918 13.3881C21.6148 12.8199 21.7782 12.5358 21.9845 12.4308C22.2063 12.3179 22.4709 12.3179 22.6928 12.4308C22.899 12.5358 23.0625 12.8199 23.3854 13.3881L24.946 16.1122L24.9539 16.1261C25.3028 16.7356 25.4797 17.0447 25.5569 17.3691C25.6425 17.7233 25.6425 18.0969 25.5569 18.451C25.4791 18.7779 25.304 19.0892 24.9499 19.708L20.9625 26.7564L20.9522 26.7744C20.6011 27.389 20.4231 27.7005 20.1765 27.9355C19.9079 28.1924 19.5849 28.3791 19.2308 28.4843C18.9078 28.5738 18.5459 28.5738 17.8221 28.5738ZM25.5857 28.5738H29.9909C30.6408 28.5738 30.9677 28.5738 31.1624 28.4455C31.3725 28.3092 31.5048 28.0795 31.5166 27.8306C31.5277 27.6085 31.3717 27.3392 31.0658 26.8113C31.0553 26.7934 31.0447 26.7751 31.0339 26.7565L28.8274 22.9817L28.8023 22.9392C28.4922 22.4148 28.3357 22.1501 28.1347 22.0477C27.913 21.9348 27.652 21.9348 27.4303 22.0477C27.228 22.1528 27.0645 22.4291 26.7415 22.9856L24.5428 26.7604L24.5353 26.7734C24.2134 27.329 24.0525 27.6066 24.0641 27.8344C24.0797 28.0835 24.2081 28.313 24.4183 28.4493C24.609 28.5738 24.9358 28.5738 25.5857 28.5738Z" fill="#E84142"/>
<path d="M22.17 44.34C34.4142 44.34 44.34 34.4142 44.34 22.17C44.34 9.92585 34.4142 0 22.17 0C9.92585 0 0 9.92585 0 22.17C0 34.4142 9.92585 44.34 22.17 44.34Z" fill="white"/>
<path fill-rule="evenodd" clip-rule="evenodd" d="M22.17 44.34C34.4141 44.34 44.34 34.4141 44.34 22.17C44.34 9.92586 34.4141 0 22.17 0C9.92586 0 0 9.92586 0 22.17C0 34.4141 9.92586 44.34 22.17 44.34ZM13.8261 28.2597C14.4327 28.4506 15.0898 28.5461 15.7975 28.5461C17.4262 28.5461 18.7236 28.1698 19.6896 27.4172C20.6556 26.6534 21.3296 25.502 21.7115 23.9631C21.8239 23.4801 21.9306 22.9971 22.0317 22.5141C22.144 22.031 22.2394 21.5424 22.3181 21.0482C22.4529 20.2844 22.4305 19.616 22.2507 19.0431C22.0822 18.4703 21.7845 17.9872 21.3577 17.5941C20.942 17.201 20.431 16.9089 19.8244 16.718C19.2291 16.5158 18.5776 16.4147 17.8699 16.4147C16.2299 16.4147 14.9269 16.8078 13.9609 17.5941C12.9949 18.3804 12.3265 19.5318 11.9558 21.0482C11.8435 21.5424 11.7312 22.031 11.6189 22.5141C11.5178 22.9971 11.4223 23.4801 11.3324 23.9631C11.2089 24.7269 11.2313 25.3953 11.3998 25.9682C11.5796 26.541 11.8772 27.0184 12.2928 27.4003C12.7085 27.7823 13.2195 28.0687 13.8261 28.2597ZM17.6172 25.5806C17.1567 25.9401 16.6231 26.1198 16.0165 26.1198C15.3987 26.1198 14.955 25.9401 14.6854 25.5806C14.4158 25.2212 14.3484 24.6483 14.4832 23.862C14.5731 23.3678 14.663 22.9016 14.7528 22.4635C14.8539 22.0255 14.9663 21.5705 15.0898 21.0987C15.2807 20.3124 15.6009 19.7395 16.0502 19.3801C16.5107 19.0207 17.0443 18.841 17.6509 18.841C18.2574 18.841 18.7011 19.0207 18.982 19.3801C19.2628 19.7395 19.3302 20.3124 19.1841 21.0987C19.1055 21.5705 19.0157 22.0255 18.9146 22.4635C18.8247 22.9016 18.718 23.3678 18.5944 23.862C18.4035 24.6483 18.0777 25.2212 17.6172 25.5806ZM22.7379 28.2597C22.8053 28.3383 22.8951 28.3776 23.0075 28.3776H25.299C25.4225 28.3776 25.5292 28.3383 25.6191 28.2597C25.7202 28.181 25.7819 28.0799 25.8045 27.9564L26.5795 24.2664H28.8542C30.3032 24.2664 31.4545 23.9575 32.3083 23.3397C33.1731 22.7219 33.746 21.7671 34.0269 20.4753C34.1617 19.8238 34.156 19.2566 34.01 18.7736C33.864 18.2793 33.6056 17.8693 33.235 17.5436C32.8643 17.2178 32.3981 16.9763 31.8365 16.819C31.286 16.6618 30.6682 16.5832 29.9831 16.5832H25.5012C25.3888 16.5832 25.2821 16.6224 25.181 16.7011C25.0799 16.7798 25.0181 16.8809 24.9957 17.0044L22.6705 27.9564C22.648 28.0799 22.6705 28.181 22.7379 28.2597ZM28.9553 21.9412H27.0176L27.6747 18.9252H29.6966C30.101 18.9252 30.3986 18.9926 30.5896 19.1274C30.7918 19.2622 30.9098 19.4419 30.9435 19.6666C30.9772 19.8912 30.9659 20.1496 30.9098 20.4416C30.7974 20.9471 30.5559 21.3234 30.1853 21.5705C29.8257 21.8177 29.4158 21.9412 28.9553 21.9412Z" fill="#FF0420"/>
</svg>
