<svg width="49" height="48" viewBox="0 0 49 48" fill="none" xmlns="http://www.w3.org/2000/svg">
<circle cx="24.3305" cy="23.8242" r="23.8248" fill="#8247E5"/>
<g clip-path="url(#clip0_22_3573)">
<path d="M31.7558 18.9443C31.2342 18.6463 30.5637 18.6463 29.9676 18.9443L25.7953 21.403L22.9641 22.9676L18.8663 25.4263C18.3448 25.7243 17.6742 25.7243 17.0782 25.4263L13.8744 23.4891C13.3529 23.1911 12.9804 22.595 12.9804 21.9245V18.1992C12.9804 17.6032 13.2784 17.0071 13.8744 16.6346L17.0782 14.772C17.5997 14.4739 18.2703 14.4739 18.8663 14.772L22.0701 16.7091C22.5916 17.0071 22.9641 17.6032 22.9641 18.2737V20.7324L25.7953 19.0933V16.5601C25.7953 15.9641 25.4973 15.368 24.9013 14.9955L18.9408 11.4937C18.4193 11.1957 17.7487 11.1957 17.1527 11.4937L11.0432 15.07C10.4472 15.368 10.1492 15.9641 10.1492 16.5601V23.5636C10.1492 24.1597 10.4472 24.7557 11.0432 25.1282L17.0782 28.63C17.5997 28.928 18.2703 28.928 18.8663 28.63L22.9641 26.2458L25.7953 24.6067L29.8931 22.2225C30.4147 21.9245 31.0852 21.9245 31.6813 22.2225L34.885 24.0852C35.4065 24.3832 35.7791 24.9792 35.7791 25.6498V29.375C35.7791 29.9711 35.481 30.5671 34.885 30.9397L31.7558 32.8023C31.2342 33.1003 30.5637 33.1003 29.9676 32.8023L26.7639 30.9397C26.2424 30.6416 25.8698 30.0456 25.8698 29.375V26.9909L23.0386 28.63V31.0887C23.0386 31.6847 23.3366 32.2808 23.9327 32.6533L29.9676 36.155C30.4892 36.4531 31.1597 36.4531 31.7558 36.155L37.7907 32.6533C38.3123 32.3553 38.6848 31.7592 38.6848 31.0887V24.0106C38.6848 23.4146 38.3868 22.8186 37.7907 22.446L31.7558 18.9443Z" fill="white"/>
</g>
<defs>
<clipPath id="clip0_22_3573">
<rect width="28.6101" height="24.9593" fill="white" transform="translate(10.1492 11.3445)"/>
</clipPath>
</defs>
</svg>
