<svg width="49" height="48" viewBox="0 0 49 48" fill="none" xmlns="http://www.w3.org/2000/svg">
<circle cx="24.4713" cy="23.8242" r="23.8248" fill="black"/>
<g clip-path="url(#clip0_22_3578)">
<path d="M36.261 30.1615L32.328 34.3162C32.2425 34.4065 32.139 34.4784 32.0241 34.5276C31.9091 34.5768 31.7851 34.6021 31.6598 34.6021H13.0154C12.9265 34.6021 12.8394 34.5765 12.7651 34.5284C12.6907 34.4804 12.6321 34.412 12.5967 34.3316C12.5612 34.2512 12.5504 34.1624 12.5655 34.076C12.5805 33.9897 12.6209 33.9095 12.6816 33.8455L16.6176 29.6907C16.7029 29.6007 16.806 29.5289 16.9205 29.4798C17.0351 29.4306 17.1587 29.4051 17.2837 29.4049H35.9271C36.016 29.4049 36.1031 29.4305 36.1775 29.4786C36.2518 29.5266 36.3103 29.595 36.3459 29.6754C36.3813 29.7558 36.3922 29.8446 36.3771 29.9309C36.362 30.0173 36.3216 30.0974 36.261 30.1615ZM32.328 21.7951C32.2425 21.7048 32.139 21.6328 32.0241 21.5837C31.9091 21.5345 31.7851 21.5092 31.6598 21.5092H13.0154C12.9265 21.5092 12.8394 21.5348 12.7651 21.5829C12.6907 21.6309 12.6321 21.6993 12.5967 21.7797C12.5612 21.8601 12.5504 21.9489 12.5655 22.0353C12.5805 22.1216 12.6209 22.2017 12.6816 22.2658L16.6176 26.4205C16.7029 26.5106 16.806 26.5823 16.9205 26.6315C17.0351 26.6807 17.1587 26.7062 17.2837 26.7064H35.9271C36.016 26.7064 36.1031 26.6808 36.1775 26.6327C36.2518 26.5847 36.3103 26.5163 36.3459 26.4359C36.3813 26.3555 36.3922 26.2667 36.3771 26.1803C36.362 26.094 36.3216 26.0139 36.261 25.9498L32.328 21.7951ZM13.0154 18.8107H31.6598C31.7851 18.8107 31.9091 18.7854 32.0241 18.7362C32.139 18.6871 32.2425 18.6151 32.328 18.5248L36.261 14.3701C36.3216 14.306 36.362 14.2259 36.3771 14.1396C36.3922 14.0532 36.3813 13.9644 36.3459 13.884C36.3103 13.8036 36.2518 13.7352 36.1775 13.6872C36.1031 13.6391 36.016 13.6135 35.9271 13.6135H17.2837C17.1587 13.6137 17.0351 13.6392 16.9205 13.6884C16.806 13.7375 16.7029 13.8094 16.6176 13.8994L12.6826 18.0541C12.622 18.1181 12.5816 18.1982 12.5665 18.2844C12.5514 18.3707 12.5622 18.4594 12.5975 18.5398C12.6328 18.6201 12.6912 18.6885 12.7654 18.7366C12.8397 18.7847 12.9266 18.8105 13.0154 18.8107Z" fill="url(#paint0_linear_22_3578)"/>
</g>
<defs>
<linearGradient id="paint0_linear_22_3578" x1="14.5699" y1="35.1023" x2="33.7915" y2="13.104" gradientUnits="userSpaceOnUse">
<stop offset="0.08" stop-color="#9945FF"/>
<stop offset="0.3" stop-color="#8752F3"/>
<stop offset="0.5" stop-color="#5497D5"/>
<stop offset="0.6" stop-color="#43B4CA"/>
<stop offset="0.72" stop-color="#28E0B9"/>
<stop offset="0.97" stop-color="#19FB9B"/>
</linearGradient>
<clipPath id="clip0_22_3578">
<rect width="23.8248" height="20.9885" fill="white" transform="translate(12.5588 13.6135)"/>
</clipPath>
</defs>
</svg>
