<svg width="49" height="48" viewBox="0 0 49 48" fill="none" xmlns="http://www.w3.org/2000/svg">
<circle cx="24.7531" cy="23.8242" r="23.8248" fill="#6FBCF0"/>
<path fill-rule="evenodd" clip-rule="evenodd" d="M16.4146 33.1197C18.1549 36.1343 21.2721 37.9338 24.7527 37.9338C28.2334 37.9338 31.35 36.1343 33.0909 33.1197C34.8312 30.1056 34.8312 26.5066 33.0909 23.492L25.7573 10.7901C25.3108 10.0168 24.1946 10.0168 23.7482 10.7901L16.4146 23.492C14.6743 26.506 14.6743 30.105 16.4146 33.1197ZM22.6869 16.8329L24.2504 14.1247C24.4737 13.738 25.0318 13.738 25.2551 14.1247L31.2702 24.5435C32.3754 26.4576 32.5828 28.6729 31.8925 30.7001C31.8207 30.3694 31.7202 30.031 31.5848 29.6892C30.754 27.5923 28.8752 25.9743 25.9999 24.8796C24.023 24.1297 22.7611 23.0269 22.2484 21.6014C21.5879 19.7642 22.2777 17.7608 22.6869 16.8329ZM20.0207 21.451L18.2352 24.5435C16.8747 26.8999 16.8747 29.7129 18.2352 32.0693C19.5957 34.4257 22.0318 35.8319 24.7527 35.8319C26.5599 35.8319 28.242 35.211 29.5664 34.1035C29.7392 33.6686 30.274 32.0768 29.6132 30.4362C29.0029 28.9212 27.534 27.7118 25.2473 26.8407C22.6623 25.8601 20.983 24.3294 20.2568 22.2922C20.1568 22.0117 20.079 21.7306 20.0207 21.451Z" fill="#1D2947"/>
</svg>
